<svg width="27.8" height="22.1" viewBox="0 0 27.8 22.1" xmlns="http://www.w3.org/2000/svg">
    <g id="svgGroup" stroke-linecap="round" fill-rule="evenodd" font-size="9pt" stroke="#213547" stroke-width="0.25mm"
        fill="#213547" style="stroke:#213547;stroke-width:0.25mm;fill:#213547">
        <path
            d="M 0 22.1 L 0 21.1 Q 0 15.4 1.7 10.25 A 40.198 40.198 0 0 1 4.841 3.192 A 48.706 48.706 0 0 1 6.8 0 L 11.6 2.2 Q 9.462 6.306 8.457 9.827 A 27.132 27.132 0 0 0 8.15 11 A 36.369 36.369 0 0 0 7.395 15.225 A 28.542 28.542 0 0 0 7.2 18.5 L 7.2 20.4 A 14.389 14.389 0 0 0 7.239 21.439 A 17.328 17.328 0 0 0 7.3 22.1 L 0 22.1 Z M 16.2 22.1 L 16.2 21.1 Q 16.2 15.4 17.9 10.25 A 40.198 40.198 0 0 1 21.041 3.192 A 48.706 48.706 0 0 1 23 0 L 27.8 2.2 Q 25.662 6.306 24.657 9.827 A 27.132 27.132 0 0 0 24.35 11 A 36.369 36.369 0 0 0 23.595 15.225 A 28.542 28.542 0 0 0 23.4 18.5 L 23.4 20.4 A 14.389 14.389 0 0 0 23.439 21.439 A 17.328 17.328 0 0 0 23.5 22.1 L 16.2 22.1 Z"
            vector-effect="non-scaling-stroke" />
    </g>
</svg>